<svg xmlns="http://www.w3.org/2000/svg" xmlns:xlink="http://www.w3.org/1999/xlink" width="500" zoomAndPan="magnify" viewBox="0 0 375 374.999991" height="500" preserveAspectRatio="xMidYMid meet" version="1.2"><defs><clipPath id="75b0db5ab7"><rect x="0" width="283" y="0" height="343"/></clipPath><clipPath id="5f887faa8b"><rect x="0" width="84" y="0" height="157"/></clipPath></defs><g id="e375f94553"><g transform="matrix(1,0,0,1,26,32)"><g clip-path="url(#75b0db5ab7)"><g style="fill:#51a2ff;fill-opacity:1;"><g transform="translate(2.259007, 307.011969)"><path style="stroke:none" d="M 230.796875 -196.703125 C 240.734375 -186.128906 248.539062 -173.78125 254.21875 -159.65625 C 259.90625 -145.53125 262.75 -130.421875 262.75 -114.328125 C 262.75 -98.234375 259.90625 -83.082031 254.21875 -68.875 C 248.539062 -54.675781 240.734375 -42.289062 230.796875 -31.71875 C 220.847656 -21.144531 209.046875 -12.78125 195.390625 -6.625 C 181.742188 -0.46875 166.875 2.609375 150.78125 2.609375 C 134.6875 2.609375 120.050781 -0.46875 106.875 -6.625 C 93.695312 -12.78125 82.453125 -21.144531 73.140625 -31.71875 C 72.984375 -32.03125 72.742188 -32.34375 72.421875 -32.65625 C 72.109375 -32.976562 71.796875 -33.296875 71.484375 -33.609375 L 68.640625 -24.859375 C 66.753906 -15.066406 63.640625 -8.039062 59.296875 -3.78125 C 54.953125 0.476562 49.863281 2.609375 44.03125 2.609375 C 33.925781 2.609375 28.875 -2.441406 28.875 -12.546875 L 28.875 -277.65625 C 28.875 -285.550781 31.554688 -292.179688 36.921875 -297.546875 C 42.285156 -302.910156 48.914062 -305.59375 56.8125 -305.59375 C 64.539062 -305.59375 71.085938 -302.910156 76.453125 -297.546875 C 78.984375 -295.023438 81 -292.066406 82.5 -288.671875 C 84 -285.273438 84.75 -281.601562 84.75 -277.65625 L 84.75 -205.9375 C 93.894531 -213.832031 104.066406 -219.988281 115.265625 -224.40625 C 126.472656 -228.820312 138.3125 -231.03125 150.78125 -231.03125 C 166.875 -231.03125 181.742188 -227.953125 195.390625 -221.796875 C 209.046875 -215.640625 220.847656 -207.273438 230.796875 -196.703125 Z M 188.890625 -69.828125 C 194.421875 -75.503906 198.722656 -82.171875 201.796875 -89.828125 C 204.867188 -97.484375 206.40625 -105.648438 206.40625 -114.328125 C 206.40625 -122.847656 204.867188 -130.9375 201.796875 -138.59375 C 198.722656 -146.25 194.421875 -152.914062 188.890625 -158.59375 C 183.523438 -164.28125 177.132812 -168.78125 169.71875 -172.09375 C 162.300781 -175.40625 154.332031 -177.0625 145.8125 -177.0625 C 137.289062 -177.0625 129.320312 -175.40625 121.90625 -172.09375 C 114.488281 -168.78125 108.019531 -164.28125 102.5 -158.59375 C 96.976562 -152.914062 92.640625 -146.25 89.484375 -138.59375 C 86.328125 -130.9375 84.75 -122.847656 84.75 -114.328125 C 84.75 -105.648438 86.328125 -97.484375 89.484375 -89.828125 C 92.640625 -82.171875 96.976562 -75.503906 102.5 -69.828125 C 108.019531 -64.148438 114.488281 -59.648438 121.90625 -56.328125 C 129.320312 -53.015625 137.289062 -51.359375 145.8125 -51.359375 C 154.332031 -51.359375 162.300781 -53.015625 169.71875 -56.328125 C 177.132812 -59.648438 183.523438 -64.148438 188.890625 -69.828125 Z M 188.890625 -69.828125 "/></g></g></g></g><g transform="matrix(1,0,0,1,258,0)"><g clip-path="url(#5f887faa8b)"><g style="fill:#51a2ff;fill-opacity:1;"><g transform="translate(1.245466, 85.962304)"><path style="stroke:none" d="M 11.953125 -25.21875 C 11.953125 -33.332031 14.601562 -39.894531 19.90625 -44.90625 C 25.363281 -50.070312 32.003906 -52.65625 39.828125 -52.65625 C 47.492188 -52.65625 54.128906 -50.070312 59.734375 -44.90625 C 65.191406 -39.75 67.921875 -33.1875 67.921875 -25.21875 C 67.921875 -21.238281 67.179688 -17.625 65.703125 -14.375 C 64.234375 -11.132812 62.242188 -8.257812 59.734375 -5.75 C 57.078125 -3.394531 54.050781 -1.476562 50.65625 0 C 47.269531 1.476562 43.660156 2.21875 39.828125 2.21875 C 35.835938 2.21875 32.144531 1.476562 28.75 0 C 25.363281 -1.476562 22.414062 -3.394531 19.90625 -5.75 C 14.601562 -10.769531 11.953125 -17.257812 11.953125 -25.21875 Z M 11.953125 -25.21875 "/></g></g></g></g></g></svg>