<svg xmlns="http://www.w3.org/2000/svg" xmlns:xlink="http://www.w3.org/1999/xlink" width="1000" zoomAndPan="magnify" viewBox="0 0 750 374.999991" height="500" preserveAspectRatio="xMidYMid meet" version="1.2"><defs><clipPath id="901fa05b9c"><rect x="0" width="286" y="0" height="363"/></clipPath><clipPath id="824dca9f89"><rect x="0" width="85" y="0" height="141"/></clipPath><clipPath id="c485b7d116"><rect x="0" width="480" y="0" height="176"/></clipPath></defs><g id="6055f99ea5"><g transform="matrix(1,0,0,1,0,12)"><g clip-path="url(#901fa05b9c)"><g style="fill:#51a2ff;fill-opacity:1;"><g transform="translate(-3.10181, 316.421849)"><path style="stroke:none" d="M 237.640625 -202.53125 C 247.867188 -191.644531 255.90625 -178.929688 261.75 -164.390625 C 267.601562 -149.847656 270.53125 -134.289062 270.53125 -117.71875 C 270.53125 -101.144531 267.601562 -85.546875 261.75 -70.921875 C 255.90625 -56.296875 247.867188 -43.539062 237.640625 -32.65625 C 227.398438 -21.769531 215.25 -13.15625 201.1875 -6.8125 C 187.132812 -0.476562 171.820312 2.6875 155.25 2.6875 C 138.675781 2.6875 123.601562 -0.476562 110.03125 -6.8125 C 96.46875 -13.15625 84.894531 -21.769531 75.3125 -32.65625 C 75.144531 -32.976562 74.898438 -33.300781 74.578125 -33.625 C 74.253906 -33.957031 73.929688 -34.285156 73.609375 -34.609375 L 70.6875 -25.59375 C 68.726562 -15.519531 65.515625 -8.285156 61.046875 -3.890625 C 56.578125 0.492188 51.335938 2.6875 45.328125 2.6875 C 34.929688 2.6875 29.734375 -2.515625 29.734375 -12.921875 L 29.734375 -285.890625 C 29.734375 -294.015625 32.492188 -300.835938 38.015625 -306.359375 C 43.546875 -311.890625 50.375 -314.65625 58.5 -314.65625 C 66.457031 -314.65625 73.195312 -311.890625 78.71875 -306.359375 C 81.320312 -303.765625 83.394531 -300.71875 84.9375 -297.21875 C 86.476562 -293.726562 87.25 -289.953125 87.25 -285.890625 L 87.25 -212.046875 C 96.675781 -220.171875 107.15625 -226.503906 118.6875 -231.046875 C 130.226562 -235.597656 142.414062 -237.875 155.25 -237.875 C 171.820312 -237.875 187.132812 -234.703125 201.1875 -228.359375 C 215.25 -222.023438 227.398438 -213.414062 237.640625 -202.53125 Z M 194.5 -71.90625 C 200.1875 -77.75 204.613281 -84.609375 207.78125 -92.484375 C 210.945312 -100.367188 212.53125 -108.78125 212.53125 -117.71875 C 212.53125 -126.488281 210.945312 -134.8125 207.78125 -142.6875 C 204.613281 -150.570312 200.1875 -157.441406 194.5 -163.296875 C 188.96875 -169.148438 182.382812 -173.78125 174.75 -177.1875 C 167.113281 -180.601562 158.910156 -182.3125 150.140625 -182.3125 C 141.359375 -182.3125 133.148438 -180.601562 125.515625 -177.1875 C 117.878906 -173.78125 111.21875 -169.148438 105.53125 -163.296875 C 99.84375 -157.441406 95.375 -150.570312 92.125 -142.6875 C 88.875 -134.8125 87.25 -126.488281 87.25 -117.71875 C 87.25 -108.78125 88.875 -100.367188 92.125 -92.484375 C 95.375 -84.609375 99.84375 -77.75 105.53125 -71.90625 C 111.21875 -66.050781 117.878906 -61.414062 125.515625 -58 C 133.148438 -54.59375 141.359375 -52.890625 150.140625 -52.890625 C 158.910156 -52.890625 167.113281 -54.59375 174.75 -58 C 182.382812 -61.414062 188.96875 -66.050781 194.5 -71.90625 Z M 194.5 -71.90625 "/></g></g></g></g><g transform="matrix(1,0,0,1,234,0)"><g clip-path="url(#824dca9f89)"><g style="fill:#51a2ff;fill-opacity:1;"><g transform="translate(0.726467, 67.876898)"><path style="stroke:none" d="M 12.296875 -25.96875 C 12.296875 -34.320312 15.03125 -41.078125 20.5 -46.234375 C 26.113281 -51.554688 32.945312 -54.21875 41 -54.21875 C 48.894531 -54.21875 55.726562 -51.554688 61.5 -46.234375 C 67.125 -40.921875 69.9375 -34.164062 69.9375 -25.96875 C 69.9375 -21.863281 69.175781 -18.140625 67.65625 -14.796875 C 66.132812 -11.460938 64.082031 -8.503906 61.5 -5.921875 C 58.769531 -3.492188 55.65625 -1.519531 52.15625 0 C 48.664062 1.519531 44.945312 2.28125 41 2.28125 C 36.90625 2.28125 33.109375 1.519531 29.609375 0 C 26.117188 -1.519531 23.082031 -3.492188 20.5 -5.921875 C 15.03125 -11.085938 12.296875 -17.769531 12.296875 -25.96875 Z M 12.296875 -25.96875 "/></g></g></g></g><g transform="matrix(1,0,0,1,266,167)"><g clip-path="url(#c485b7d116)"><g style="fill:#51a2ff;fill-opacity:1;"><g transform="translate(0.461974, 142.573281)"><path style="stroke:none" d="M 73.609375 -98.015625 C 76.285156 -97.054688 78.550781 -95.648438 80.40625 -93.796875 C 82.257812 -91.941406 83.1875 -89.570312 83.1875 -86.6875 C 83.1875 -84.769531 82.6875 -83.035156 81.6875 -81.484375 C 80.695312 -79.941406 79.484375 -78.757812 78.046875 -77.9375 C 76.535156 -77.050781 74.988281 -76.519531 73.40625 -76.34375 C 71.832031 -76.175781 69.640625 -76.160156 66.828125 -76.296875 C 65.722656 -76.359375 64.585938 -76.425781 63.421875 -76.5 C 62.253906 -76.570312 61.085938 -76.640625 59.921875 -76.703125 C 57.585938 -76.835938 55.269531 -76.523438 52.96875 -75.765625 C 50.675781 -75.015625 48.53125 -73.921875 46.53125 -72.484375 C 42.625 -69.597656 39.675781 -65.582031 37.6875 -60.4375 C 36.789062 -57.894531 36.171875 -55.21875 35.828125 -52.40625 L 35.828125 -11.125 C 35.828125 -9.40625 35.5 -7.804688 34.84375 -6.328125 C 34.195312 -4.859375 33.328125 -3.570312 32.234375 -2.46875 C 29.890625 -0.132812 27.039062 1.03125 23.6875 1.03125 C 20.25 1.03125 17.363281 -0.132812 15.03125 -2.46875 C 12.695312 -4.800781 11.53125 -7.6875 11.53125 -11.125 L 11.53125 -94 C 11.53125 -98.394531 13.726562 -100.59375 18.125 -100.59375 C 20.664062 -100.59375 22.859375 -99.71875 24.703125 -97.96875 C 26.554688 -96.21875 27.929688 -93.113281 28.828125 -88.65625 L 29.75 -84.734375 C 30.914062 -86.109375 32.289062 -87.484375 33.875 -88.859375 C 35.457031 -90.234375 37.207031 -91.570312 39.125 -92.875 C 41.59375 -94.519531 44.300781 -95.976562 47.25 -97.25 C 50.207031 -98.519531 53.367188 -99.425781 56.734375 -99.96875 C 59.128906 -100.175781 61.851562 -100.140625 64.90625 -99.859375 C 67.96875 -99.585938 70.867188 -98.972656 73.609375 -98.015625 Z M 73.609375 -98.015625 "/></g></g><g style="fill:#51a2ff;fill-opacity:1;"><g transform="translate(88.080628, 142.573281)"><path style="stroke:none" d="M 10.296875 -126.640625 C 10.296875 -130.410156 11.597656 -133.535156 14.203125 -136.015625 C 16.742188 -138.554688 19.90625 -139.828125 23.6875 -139.828125 C 25.53125 -139.828125 27.257812 -139.484375 28.875 -138.796875 C 30.488281 -138.109375 31.914062 -137.179688 33.15625 -136.015625 C 35.757812 -133.535156 37.0625 -130.410156 37.0625 -126.640625 C 37.0625 -122.867188 35.757812 -119.742188 33.15625 -117.265625 C 30.539062 -114.796875 27.382812 -113.5625 23.6875 -113.5625 C 19.84375 -113.5625 16.679688 -114.796875 14.203125 -117.265625 C 11.597656 -119.742188 10.296875 -122.867188 10.296875 -126.640625 Z M 11.53125 -11.125 L 11.53125 -88.65625 C 11.53125 -92.007812 12.695312 -94.851562 15.03125 -97.1875 C 17.226562 -99.53125 20.078125 -100.703125 23.578125 -100.703125 C 26.941406 -100.703125 29.789062 -99.53125 32.125 -97.1875 C 33.21875 -96.09375 34.09375 -94.804688 34.75 -93.328125 C 35.40625 -91.859375 35.734375 -90.300781 35.734375 -88.65625 L 35.734375 -11.125 C 35.734375 -9.40625 35.40625 -7.804688 34.75 -6.328125 C 34.09375 -4.859375 33.21875 -3.570312 32.125 -2.46875 C 29.789062 -0.132812 26.941406 1.03125 23.578125 1.03125 C 20.078125 1.03125 17.226562 -0.132812 15.03125 -2.46875 C 12.695312 -4.800781 11.53125 -7.6875 11.53125 -11.125 Z M 11.53125 -11.125 "/></g></g><g style="fill:#51a2ff;fill-opacity:1;"><g transform="translate(135.339111, 142.573281)"><path style="stroke:none" d="M 57.140625 1.03125 C 50.140625 1.03125 43.582031 -0.304688 37.46875 -2.984375 C 31.363281 -5.660156 25.976562 -9.300781 21.3125 -13.90625 C 16.71875 -18.425781 13.0625 -23.773438 10.34375 -29.953125 C 7.632812 -36.140625 6.28125 -42.734375 6.28125 -49.734375 C 6.28125 -57.140625 7.648438 -63.945312 10.390625 -70.15625 C 13.140625 -76.375 16.882812 -81.75 21.625 -86.28125 C 26.351562 -90.738281 31.84375 -94.238281 38.09375 -96.78125 C 44.34375 -99.320312 50.96875 -100.59375 57.96875 -100.59375 C 64.96875 -100.59375 71.503906 -99.351562 77.578125 -96.875 C 83.648438 -94.40625 88.953125 -90.976562 93.484375 -86.59375 C 98.015625 -82.195312 101.582031 -76.976562 104.1875 -70.9375 C 106.800781 -64.894531 108.109375 -58.34375 108.109375 -51.28125 C 108.109375 -47.84375 107.210938 -45.539062 105.421875 -44.375 C 103.640625 -43.207031 100.585938 -42.625 96.265625 -42.625 L 31.203125 -42.625 C 31.472656 -39.46875 32.34375 -36.484375 33.8125 -33.671875 C 35.289062 -30.859375 37.195312 -28.351562 39.53125 -26.15625 C 41.863281 -24.019531 44.539062 -22.28125 47.5625 -20.9375 C 50.582031 -19.601562 53.8125 -18.9375 57.25 -18.9375 C 64.039062 -18.9375 70.007812 -21.132812 75.15625 -25.53125 C 76.601562 -26.351562 78.320312 -26.796875 80.3125 -26.859375 C 82.300781 -26.929688 84.222656 -26.628906 86.078125 -25.953125 C 87.929688 -25.265625 89.507812 -24.144531 90.8125 -22.59375 C 92.113281 -21.050781 92.765625 -19.113281 92.765625 -16.78125 C 92.765625 -14.101562 91.664062 -11.679688 89.46875 -9.515625 C 87.269531 -7.359375 84.457031 -5.488281 81.03125 -3.90625 C 77.59375 -2.394531 73.742188 -1.191406 69.484375 -0.296875 C 65.234375 0.585938 61.117188 1.03125 57.140625 1.03125 Z M 57.96875 -80.828125 C 54.601562 -80.828125 51.375 -80.242188 48.28125 -79.078125 C 45.195312 -77.910156 42.453125 -76.296875 40.046875 -74.234375 C 37.648438 -72.171875 35.644531 -69.75 34.03125 -66.96875 C 32.414062 -64.195312 31.398438 -61.160156 30.984375 -57.859375 L 83.609375 -57.859375 C 83.328125 -61.160156 82.445312 -64.195312 80.96875 -66.96875 C 79.5 -69.75 77.632812 -72.171875 75.375 -74.234375 C 73.03125 -76.296875 70.363281 -77.910156 67.375 -79.078125 C 64.394531 -80.242188 61.257812 -80.828125 57.96875 -80.828125 Z M 57.96875 -80.828125 "/></g></g><g style="fill:#51a2ff;fill-opacity:1;"><g transform="translate(249.727286, 142.573281)"><path style="stroke:none" d="M 59.71875 -89.265625 C 61.226562 -89.265625 62.648438 -88.972656 63.984375 -88.390625 C 65.328125 -87.804688 66.515625 -87.035156 67.546875 -86.078125 C 68.578125 -85.046875 69.382812 -83.859375 69.96875 -82.515625 C 70.550781 -81.179688 70.84375 -79.722656 70.84375 -78.140625 C 70.84375 -75.054688 69.742188 -72.484375 67.546875 -70.421875 C 65.347656 -68.222656 62.738281 -67.125 59.71875 -67.125 L 47.46875 -67.125 L 47.46875 -11.125 C 47.46875 -9.539062 47.15625 -8.023438 46.53125 -6.578125 C 45.914062 -5.140625 45.09375 -3.835938 44.0625 -2.671875 C 42.96875 -1.578125 41.664062 -0.6875 40.15625 0 C 38.644531 0.6875 37.03125 1.03125 35.3125 1.03125 C 33.53125 1.03125 31.898438 0.671875 30.421875 -0.046875 C 28.953125 -0.765625 27.664062 -1.675781 26.5625 -2.78125 C 24.300781 -5.1875 23.171875 -7.96875 23.171875 -11.125 L 23.171875 -67.125 L 15.34375 -67.125 C 12.1875 -67.125 9.578125 -68.222656 7.515625 -70.421875 C 5.390625 -72.546875 4.328125 -75.117188 4.328125 -78.140625 C 4.328125 -79.722656 4.617188 -81.179688 5.203125 -82.515625 C 5.785156 -83.859375 6.554688 -85.046875 7.515625 -86.078125 C 8.472656 -87.035156 9.617188 -87.804688 10.953125 -88.390625 C 12.296875 -88.972656 13.757812 -89.265625 15.34375 -89.265625 L 23.171875 -89.265625 C 23.304688 -95.859375 24.195312 -101.953125 25.84375 -107.546875 C 27.488281 -113.140625 29.820312 -117.992188 32.84375 -122.109375 C 36.070312 -126.429688 40.070312 -129.8125 44.84375 -132.25 C 49.613281 -134.6875 55.191406 -135.90625 61.578125 -135.90625 C 65.003906 -135.90625 67.882812 -134.738281 70.21875 -132.40625 C 72.550781 -130.070312 73.71875 -127.191406 73.71875 -123.765625 C 73.71875 -121.285156 73.066406 -119.082031 71.765625 -117.15625 C 70.460938 -115.238281 68.710938 -113.867188 66.515625 -113.046875 C 63.972656 -112.503906 61.585938 -111.835938 59.359375 -111.046875 C 57.128906 -110.253906 55.117188 -109.066406 53.328125 -107.484375 C 51.617188 -105.972656 50.226562 -103.984375 49.15625 -101.515625 C 48.09375 -99.046875 47.53125 -95.957031 47.46875 -92.25 L 47.46875 -89.265625 Z M 59.71875 -89.265625 "/></g></g><g style="fill:#51a2ff;fill-opacity:1;"><g transform="translate(327.873663, 142.573281)"><path style="stroke:none" d="M 11.53125 -11.125 L 11.53125 -119.953125 C 11.53125 -123.316406 12.695312 -126.164062 15.03125 -128.5 C 17.363281 -130.832031 20.25 -132 23.6875 -132 C 27.039062 -132 29.890625 -130.832031 32.234375 -128.5 C 33.328125 -127.394531 34.195312 -126.101562 34.84375 -124.625 C 35.5 -123.15625 35.828125 -121.597656 35.828125 -119.953125 L 35.828125 -11.125 C 35.828125 -9.40625 35.5 -7.804688 34.84375 -6.328125 C 34.195312 -4.859375 33.328125 -3.570312 32.234375 -2.46875 C 29.890625 -0.132812 27.039062 1.03125 23.6875 1.03125 C 20.25 1.03125 17.363281 -0.132812 15.03125 -2.46875 C 12.695312 -4.800781 11.53125 -7.6875 11.53125 -11.125 Z M 11.53125 -11.125 "/></g></g><g style="fill:#51a2ff;fill-opacity:1;"><g transform="translate(375.235107, 142.573281)"><path style="stroke:none" d="M 34.390625 3.1875 L 39.75 -8.65625 C 39.75 -8.582031 39.265625 -9.675781 38.296875 -11.9375 C 37.816406 -13.039062 37.234375 -14.296875 36.546875 -15.703125 C 35.859375 -17.109375 35.140625 -18.671875 34.390625 -20.390625 C 33.628906 -22.171875 32.785156 -24.054688 31.859375 -26.046875 C 30.929688 -28.035156 29.988281 -30.128906 29.03125 -32.328125 L 22.75 -45.921875 L 5.875 -82.984375 C 4.425781 -86.347656 4.113281 -89.625 4.9375 -92.8125 C 5.757812 -96.007812 7.820312 -98.394531 11.125 -99.96875 C 12.632812 -100.65625 14.242188 -101.050781 15.953125 -101.15625 C 17.671875 -101.257812 19.320312 -101.035156 20.90625 -100.484375 C 22.476562 -99.867188 23.898438 -98.941406 25.171875 -97.703125 C 26.441406 -96.472656 27.421875 -94.929688 28.109375 -93.078125 L 52.40625 -31.09375 C 56.113281 -40.5625 59.425781 -49.035156 62.34375 -56.515625 C 65.257812 -64.003906 67.75 -70.425781 69.8125 -75.78125 C 70.84375 -78.457031 71.769531 -80.859375 72.59375 -82.984375 C 73.414062 -85.109375 74.097656 -86.925781 74.640625 -88.4375 C 75.460938 -90.5 76.082031 -92.0625 76.5 -93.125 C 76.914062 -94.1875 77.328125 -95.046875 77.734375 -95.703125 C 78.148438 -96.359375 78.734375 -97.0625 79.484375 -97.8125 C 81.890625 -100.070312 84.773438 -101.203125 88.140625 -101.203125 C 89.785156 -101.203125 91.273438 -100.894531 92.609375 -100.28125 C 93.953125 -99.664062 95.171875 -98.878906 96.265625 -97.921875 C 97.367188 -96.953125 98.28125 -95.78125 99 -94.40625 C 99.71875 -93.039062 100.113281 -91.429688 100.1875 -89.578125 C 100.25 -87.722656 99.765625 -85.695312 98.734375 -83.5 L 57.765625 8.546875 C 56.253906 11.972656 54.519531 15.039062 52.5625 17.75 C 50.601562 20.46875 48.320312 22.785156 45.71875 24.703125 C 43.101562 26.628906 40.113281 28.140625 36.75 29.234375 C 33.394531 30.335938 29.550781 30.957031 25.21875 31.09375 C 21.238281 31.164062 17.960938 30.171875 15.390625 28.109375 C 12.816406 26.046875 11.53125 23.0625 11.53125 19.15625 C 11.53125 17.226562 11.925781 15.679688 12.71875 14.515625 C 13.507812 13.347656 14.554688 12.421875 15.859375 11.734375 C 16.546875 11.390625 17.25 11.082031 17.96875 10.8125 C 18.6875 10.539062 19.457031 10.265625 20.28125 9.984375 C 21.925781 9.503906 23.585938 8.988281 25.265625 8.4375 C 26.953125 7.894531 28.617188 7.210938 30.265625 6.390625 C 31.847656 5.628906 33.222656 4.5625 34.390625 3.1875 Z M 34.390625 3.1875 "/></g></g></g></g></g></svg>